<svg xmlns="http://www.w3.org/2000/svg" version="1.1" xmlns:xlink="http://www.w3.org/1999/xlink" xmlns:svgjs="http://svgjs.dev/svgjs" width="1500" height="806" viewBox="0 0 1500 806"><g transform="matrix(1,0,0,1,-0.9090909090909918,0.5375828021548728)"><svg viewBox="0 0 396 213" data-background-color="#636365" preserveAspectRatio="xMidYMid meet" height="806" width="1500" xmlns="http://www.w3.org/2000/svg" xmlns:xlink="http://www.w3.org/1999/xlink"><g id="tight-bounds" transform="matrix(1,0,0,1,0.2400000000000091,-0.14206592662405626)"><svg viewBox="0 0 395.52 213.2841191434512" height="213.2841191434512" width="395.52"><g><svg viewBox="0 0 397.4975999999999 214.35053973916843" height="213.2841191434512" width="395.52"><g><rect width="397.4975999999999" height="6.716653868656921" x="0" y="71.90094353051549" fill="#ffffff" opacity="1" stroke-width="0" stroke="transparent" fill-opacity="1" class="rect-qz-0" data-fill-palette-color="primary" rx="1%" id="qz-0" data-palette-color="#ffffff"></rect></g><g><rect width="397.4975999999999" height="6.716653868656921" x="0" y="87.40902916443017" fill="#ffffff" opacity="1" stroke-width="0" stroke="transparent" fill-opacity="1" class="rect-qz-1" data-fill-palette-color="primary" rx="1%" id="qz-1" data-palette-color="#ffffff"></rect></g><g transform="matrix(1,0,0,1,0.9887999999999693,111.70854656360258)"><svg viewBox="0 0 395.52 102.64199317556583" height="102.64199317556583" width="395.52"><g id="textblocktransform"><svg viewBox="0 0 395.52 102.64199317556583" height="102.64199317556583" width="395.52" id="textblock"><g><svg viewBox="0 0 395.52 74.47967404782993" height="74.47967404782993" width="395.52"><g transform="matrix(1,0,0,1,0,0)"><svg width="395.52" viewBox="-0.8 -39.65 282.23 53.15" height="74.47967404782993" data-palette-color="#ffffff"><path d="M-0.8-34.65L-0.8-37.15 12.5-37.15 12.5-34.65 8.05-34.05 16.3-10.6 18.15-4.5 19.8-10.7 27.25-34.05 23.3-34.65 23.3-37.15 34.45-37.15 34.45-34.65 31.25-34.05 19.4 0.4 15.05 0.4 2.25-34.05-0.8-34.65ZM41.65-32.75Q40.05-32.75 39.25-33.65 38.45-34.55 38.45-35.95L38.45-35.95Q38.45-37.55 39.42-38.6 40.4-39.65 42.1-39.65L42.1-39.65Q43.8-39.65 44.6-38.75 45.4-37.85 45.4-36.45L45.4-36.45Q45.4-34.75 44.42-33.75 43.45-32.75 41.7-32.75L41.7-32.75 41.65-32.75ZM39.65-2.9L39.65-23.9 35.85-24.8 35.85-27.45 43.6-28.4 43.7-28.4 44.85-27.5 44.85-2.85 48.85-2.45 48.85 0 35.6 0 35.6-2.45 39.65-2.9ZM52.5 0L52.5-2.45 56.25-2.75 56.25-23.9 52.65-24.8 52.65-27.5 59.55-28.4 59.65-28.4 60.75-27.5 60.75-26.6 60.6-22.7 60.75-22.7Q61.25-23.55 62.55-24.9 63.85-26.25 65.9-27.38 67.95-28.5 70.35-28.5L70.35-28.5Q71.35-28.5 72-28.25L72-28.25 72-22.65Q71.65-22.9 70.87-23.13 70.1-23.35 69.15-23.35L69.15-23.35Q65-23.35 61.45-20.8L61.45-20.8 61.45-2.8 67.8-2.4 67.8 0 52.5 0ZM83.84 0.5Q80.99 0.5 79.59-0.8 78.19-2.1 78.19-5.25L78.19-5.25 78.19-24.45 74.59-24.45 74.59-26.7Q74.84-26.75 75.99-27.05 77.14-27.35 77.54-27.6L77.54-27.6Q78.34-28.05 78.79-29.4L78.79-29.4Q79.19-30.35 79.74-32.45 80.29-34.55 80.39-34.95L80.39-34.95 83.34-34.95 83.44-27.75 91.79-27.75 91.79-24.45 83.44-24.45 83.44-9.1Q83.44-6.25 83.62-5.1 83.79-3.95 84.37-3.6 84.94-3.25 86.34-3.25L86.34-3.25Q87.69-3.25 89.32-3.6 90.94-3.95 91.84-4.35L91.84-4.35 92.59-2.1Q91.39-1.2 88.72-0.35 86.04 0.5 83.84 0.5L83.84 0.5ZM118.39 0.45Q116.99 0.45 116.32-0.1 115.64-0.65 115.64-1.9L115.64-1.9 115.64-3.6Q113.99-1.95 111.52-0.7 109.04 0.55 106.54 0.55L106.54 0.55Q101.89 0.55 99.94-1.95 97.99-4.45 97.99-10.2L97.99-10.2 97.99-24.7 95.19-25.5 95.19-27.7 102.19-28.35 102.24-28.35 103.19-27.75 103.19-10.6Q103.19-7.7 103.62-6.08 104.04-4.45 105.12-3.68 106.19-2.9 108.24-2.9L108.24-2.9Q110.24-2.9 111.99-3.75 113.74-4.6 115.04-5.75L115.04-5.75 115.04-24.7 111.44-25.5 111.44-27.7 119.04-28.35 119.09-28.35 120.24-27.75 120.24-2.55 123.24-2.55 123.19-0.3Q121.79 0.05 120.77 0.25 119.74 0.45 118.39 0.45L118.39 0.45ZM131.54-2.95L131.54-34.05 127.49-34.65 127.49-37.15 141.84-37.15 141.84-34.65 136.89-34.05 136.89-2.95 149.79-3.4 152.74-11.8 155.79-11.35 154.04 0 127.39 0 127.39-2.45 131.54-2.95ZM164.84-32.75Q163.24-32.75 162.44-33.65 161.63-34.55 161.63-35.95L161.63-35.95Q161.63-37.55 162.61-38.6 163.59-39.65 165.28-39.65L165.28-39.65Q166.99-39.65 167.78-38.75 168.59-37.85 168.59-36.45L168.59-36.45Q168.59-34.75 167.61-33.75 166.63-32.75 164.88-32.75L164.88-32.75 164.84-32.75ZM162.84-2.9L162.84-23.9 159.03-24.8 159.03-27.45 166.78-28.4 166.88-28.4 168.03-27.5 168.03-2.85 172.03-2.45 172.03 0 158.78 0 158.78-2.45 162.84-2.9ZM173.28-25.4L173.28-27.75 184.88-27.75 184.88-25.4 181.33-24.75 186.38-10.35 188.48-4 190.28-10.15 195.33-24.75 191.93-25.4 191.93-27.75 202.08-27.75 202.08-25.4 199.48-24.75 189.83 0.4 185.58 0.4 175.53-24.75 173.28-25.4ZM209.88-32.75Q208.28-32.75 207.48-33.65 206.68-34.55 206.68-35.95L206.68-35.95Q206.68-37.55 207.66-38.6 208.63-39.65 210.33-39.65L210.33-39.65Q212.03-39.65 212.83-38.75 213.63-37.85 213.63-36.45L213.63-36.45Q213.63-34.75 212.66-33.75 211.68-32.75 209.93-32.75L209.93-32.75 209.88-32.75ZM207.88-2.9L207.88-23.9 204.08-24.8 204.08-27.45 211.83-28.4 211.93-28.4 213.08-27.5 213.08-2.85 217.08-2.45 217.08 0 203.83 0 203.83-2.45 207.88-2.9ZM223.63-2.9L223.63-23.9 220.03-24.8 220.03-27.5 227.18-28.4 227.33-28.4 228.38-27.5 228.38-25.4 228.33-24.2Q230.13-25.8 233.08-27.1 236.03-28.4 238.73-28.4L238.73-28.4Q241.88-28.4 243.6-27.2 245.33-26 246.03-23.53 246.73-21.05 246.73-16.85L246.73-16.85 246.73-2.85 250.23-2.5 250.23 0 238.38 0 238.38-2.45 241.48-2.85 241.48-16.9Q241.48-19.85 241.08-21.53 240.68-23.2 239.58-24.03 238.48-24.85 236.38-24.85L236.38-24.85Q234.58-24.85 232.53-23.95 230.48-23.05 228.88-21.85L228.88-21.85 228.88-2.9 232.28-2.45 232.28 0 220.48 0 220.48-2.45 223.63-2.9ZM265.78 13.5Q259.38 13.5 256.5 11.48 253.63 9.45 253.63 5.9L253.63 5.9Q253.63 3.7 255 1.85 256.38 0 258.28-0.95L258.28-0.95Q255.98-2.25 255.98-5.15L255.98-5.15Q255.98-6.95 257.03-8.55 258.08-10.15 259.78-11L259.78-11Q257.28-12.1 255.95-14.15 254.63-16.2 254.63-19L254.63-19Q254.63-21.9 256.25-24.05 257.88-26.2 260.55-27.35 263.23-28.5 266.23-28.5L266.23-28.5Q271.28-28.5 274.13-26.4L274.13-26.4Q274.88-27.15 276.43-27.85 277.98-28.55 279.73-28.55L279.73-28.55 281.43-28.55 281.43-24.15 275.93-24.15Q277.13-22.3 277.13-19.85L277.13-19.85Q277.13-16.9 275.65-14.63 274.18-12.35 271.55-11.1 268.93-9.85 265.63-9.85L265.63-9.85Q263.48-9.85 261.78-10.3L261.78-10.3Q261.08-9.6 260.63-8.75 260.18-7.9 260.18-7.1L260.18-7.1Q260.18-5.3 261.38-4.63 262.58-3.95 265.68-3.95L265.68-3.95 271.33-3.95Q276.18-3.95 278.53-2.1 280.88-0.25 280.88 3.15L280.88 3.15Q280.88 6 278.83 8.38 276.78 10.75 273.3 12.13 269.83 13.5 265.78 13.5L265.78 13.5ZM266.13-12.6Q271.83-12.6 271.83-19.35L271.83-19.35Q271.83-22.7 270.35-24.28 268.88-25.85 265.93-25.85L265.93-25.85Q263.18-25.85 261.58-24.33 259.98-22.8 259.98-19.45L259.98-19.45Q259.98-16.3 261.5-14.45 263.03-12.6 266.13-12.6L266.13-12.6ZM266.23 10.6Q268.68 10.6 270.85 9.88 273.03 9.15 274.38 7.73 275.73 6.3 275.73 4.4L275.73 4.4Q275.73 2.15 274.53 1.13 273.33 0.1 269.88 0.1L269.88 0.1 263.98 0.1Q261.98 0.1 260.83-0.15L260.83-0.15Q258.78 2.1 258.78 4.9L258.78 4.9Q258.78 7.7 260.48 9.15 262.18 10.6 266.23 10.6L266.23 10.6Z" opacity="1" transform="matrix(1,0,0,1,0,0)" fill="#ffffff" class="wordmark-text-0" data-fill-palette-color="primary" id="text-0"></path></svg></g></svg></g><g transform="matrix(1,0,0,1,75.54432,92.06253757834543)"><svg viewBox="0 0 244.43135999999998 10.5794555972204" height="10.5794555972204" width="244.43135999999998"><g transform="matrix(1,0,0,1,0,0)"><svg width="244.43135999999998" viewBox="2 -33.94 1040.07 45.021718691651" height="10.5794555972204" data-palette-color="#ffffff"><path d="M2.98-23.93L2.98-23.93Q2.98-27.69 5.86-30.1 8.74-32.52 12.55-32.52L12.55-32.52Q13.62-32.52 14.58-32.4 15.53-32.28 16.14-32.13 16.75-31.98 17.9-31.67 19.04-31.35 19.92-31.15L19.92-31.15Q20.51-28.56 20.51-24.17L20.51-24.17Q20.51-23.83 20.02-23.83L20.02-23.83Q18.85-23.83 18.75-24.32L18.75-24.32Q18.51-26.46 16.67-28.49 14.84-30.52 12.21-30.52L12.21-30.52Q9.28-30.52 8.08-29.05 6.88-27.59 6.88-25.44L6.88-25.44Q6.88-24.51 7.23-23.66 7.57-22.8 7.91-22.24 8.25-21.68 9.16-20.95 10.06-20.21 10.47-19.92 10.89-19.63 12.13-18.85 13.38-18.07 13.72-17.87L13.72-17.87Q13.96-17.72 15.43-16.82 16.89-15.92 17.43-15.55 17.97-15.19 19.12-14.23 20.26-13.28 20.78-12.55 21.29-11.82 21.75-10.72 22.22-9.62 22.22-8.45L22.22-8.45Q22.22-4.54 19.17-2.03 16.11 0.49 12.01 0.49L12.01 0.49Q10.84 0.49 9.52 0.32 8.2 0.15 7.32-0.02 6.45-0.2 5.1-0.51 3.76-0.83 3.22-0.93L3.22-0.93Q2-6.93 2-8.69L2-8.69Q2-8.98 2.78-8.98L2.78-8.98Q3.66-8.98 4-8.54L4-8.54Q5.66-1.51 12.11-1.51L12.11-1.51Q14.55-1.51 16.26-2.98 17.97-4.44 17.97-7.13L17.97-7.13Q17.97-8.11 17.68-8.94 17.38-9.77 17.07-10.3 16.75-10.84 15.94-11.45 15.14-12.06 14.7-12.35 14.26-12.65 13.09-13.28 11.91-13.92 11.47-14.16L11.47-14.16Q10.06-14.99 9.5-15.33 8.94-15.67 7.64-16.53 6.35-17.38 5.76-18.04 5.18-18.7 4.39-19.65 3.61-20.61 3.3-21.68 2.98-22.75 2.98-23.93ZM27.88-5.86L27.88-18.26 25.05-18.26Q24.8-18.26 24.8-19.29L24.8-19.29Q24.8-19.58 24.85-19.63L24.85-19.63Q26.27-20.26 27.93-22.22L27.93-22.22Q28.46-22.85 28.98-23.66 29.49-24.46 29.83-25.05 30.17-25.63 30.17-25.68L30.17-25.68Q31.64-25.68 31.64-25.44L31.64-25.44 31.64-20.61Q32.91-20.61 35.5-20.58 38.08-20.56 38.23-20.56L38.23-20.56Q38.62-20.56 38.62-20.12L38.62-20.12Q38.62-19.24 38.13-18.26L38.13-18.26 31.64-18.26 31.64-6.3Q31.64-4.35 32.64-3.17 33.64-2 35.25-2L35.25-2Q36.72-2 38.28-2.93L38.28-2.93Q38.43-3.03 38.72-2.51 39.01-2 38.96-1.95L38.96-1.95Q38.23-1.17 36.72-0.42 35.2 0.34 33.59 0.34L33.59 0.34Q31.15 0.34 29.51-1.27 27.88-2.88 27.88-5.86L27.88-5.86ZM50.29-19.48L50.29-19.48Q47.75-19.48 46.41-17.31 45.06-15.14 45.06-13.72L45.06-13.72Q45.06-13.38 45.36-13.38L45.36-13.38 54.88-13.38Q55.12-13.38 55.12-13.87L55.12-13.87Q55.12-15.43 53.8-17.46 52.49-19.48 50.29-19.48ZM50.78-21.29L50.78-21.29Q53.02-21.29 54.73-20.43 56.44-19.58 57.34-18.24 58.25-16.89 58.66-15.5 59.08-14.11 59.08-12.74L59.08-12.74Q59.08-11.77 58.78-11.55 58.49-11.33 57.66-11.33L57.66-11.33 45.36-11.33Q44.97-11.33 44.97-11.08L44.97-11.08Q44.97-8.01 46.82-5.42 48.68-2.83 52.19-2.83L52.19-2.83Q53.22-2.83 54.15-3.03 55.07-3.22 55.73-3.49 56.39-3.76 56.86-4.03 57.32-4.3 57.66-4.54L57.66-4.54 58-4.79Q58.3-4.79 58.3-4.15L58.3-4.15Q58.3-3.76 58-3.27L58-3.27Q57.03-1.9 55.12-0.81 53.22 0.29 50.97 0.29L50.97 0.29Q46.92 0.29 44.01-2.76 41.11-5.81 41.11-10.21L41.11-10.21Q41.11-15.33 43.87-18.31 46.63-21.29 50.78-21.29ZM73.43-21.29L73.43-21.29Q78.12-21.29 80.75-18.14 83.39-14.99 83.39-11.43L83.39-11.43Q83.39-6.74 80.12-3.17 76.85 0.39 72.7 0.39L72.7 0.39Q71.97 0.39 71.4 0.34 70.84 0.29 70.4 0.17 69.96 0.05 69.72-0.05 69.47-0.15 69.08-0.32 68.69-0.49 68.6-0.54L68.6-0.54Q68.4-0.29 68.4 0.1L68.4 0.1 68.4 4.3Q68.4 7.13 68.79 8.64L68.79 8.64Q68.89 8.98 70.06 9.3 71.23 9.62 71.72 9.62L71.72 9.62Q71.87 9.62 71.92 10.23 71.97 10.84 71.87 11.04L71.87 11.04Q66.98 10.79 66.64 10.79L66.64 10.79Q66.35 10.79 61.32 11.04L61.32 11.04Q61.13 10.84 61.13 10.23 61.13 9.62 61.32 9.62L61.32 9.62Q61.91 9.62 63.05 9.3 64.2 8.98 64.3 8.64L64.3 8.64Q64.64 7.23 64.64 5.22L64.64 5.22 64.64-14.94Q64.64-16.85 63.96-17.58L63.96-17.58Q63.47-18.16 62.76-18.38 62.05-18.6 61.59-18.6 61.13-18.6 61.13-18.7L61.13-18.7Q61.13-19.87 61.42-19.92L61.42-19.92Q66.59-20.7 68.16-21.19L68.16-21.19Q68.21-21.19 68.3-21.22 68.4-21.24 68.4-21.24L68.4-21.24Q68.55-21.24 68.55-20.97 68.55-20.7 68.5-20.31 68.45-19.92 68.45-19.87L68.45-19.87 68.45-19.58Q69.13-20.07 70.72-20.68 72.31-21.29 73.43-21.29ZM71.87-18.9L71.87-18.9Q70.35-18.9 69.38-18.09 68.4-17.29 68.4-15.77L68.4-15.77 68.4-4.79Q68.4-3.47 69.82-2.56 71.23-1.66 72.89-1.66L72.89-1.66Q75.77-1.66 77.48-4.25 79.19-6.84 79.19-10.06L79.19-10.06Q79.19-14.16 77.02-16.53 74.85-18.9 71.87-18.9ZM101.28-27.22Q100.57-27.93 100.57-28.96 100.57-29.98 101.28-30.69 101.99-31.4 103.01-31.4 104.04-31.4 104.75-30.69 105.46-29.98 105.46-28.96 105.46-27.93 104.75-27.22 104.04-26.51 103.01-26.51 101.99-26.51 101.28-27.22ZM105.26-16.65L105.26-6.59Q105.26-3.76 105.65-2.25L105.65-2.25Q105.75-1.9 106.92-1.59 108.09-1.27 108.58-1.27L108.58-1.27Q108.73-1.27 108.78-0.68 108.83-0.1 108.73 0.15L108.73 0.15Q103.84-0.1 103.5-0.1 103.16-0.1 98.18 0.15L98.18 0.15Q97.99-0.05 97.99-0.66 97.99-1.27 98.18-1.27L98.18-1.27Q98.77-1.27 99.91-1.59 101.06-1.9 101.16-2.25L101.16-2.25Q101.5-3.66 101.5-5.66L101.5-5.66 101.5-14.89Q101.5-16.8 100.82-17.53L100.82-17.53Q100.33-18.12 99.62-18.33 98.91-18.55 98.45-18.55 97.99-18.55 97.99-18.65L97.99-18.65Q97.99-19.82 98.28-19.87L98.28-19.87Q103.45-20.65 105.02-21.14L105.02-21.14 105.11-21.19Q105.21-21.19 105.26-21.19L105.26-21.19Q105.46-21.19 105.51-20.78 105.55-20.36 105.51-20.17L105.51-20.17Q105.26-18.21 105.26-16.65L105.26-16.65ZM125.28-21.39L125.28-21.39Q128.7-21.39 130.06-18.95 131.43-16.5 131.43-11.04L131.43-11.04 131.43-6.59Q131.43-3.76 131.82-2.25L131.82-2.25Q131.92-1.9 133.09-1.59 134.26-1.27 134.75-1.27L134.75-1.27Q134.9-1.27 134.95-0.68 134.99-0.1 134.9 0.15L134.9 0.15Q130.01-0.1 129.67-0.1L129.67-0.1Q129.57-0.1 124.55 0.15L124.55 0.15Q124.35-0.05 124.35-0.66 124.35-1.27 124.55-1.27L124.55-1.27Q125.13-1.27 126.18-1.59 127.23-1.9 127.33-2.25L127.33-2.25Q127.67-3.66 127.67-5.66L127.67-5.66 127.67-10.55Q127.67-15.09 126.5-16.75 125.33-18.41 122.69-18.41L122.69-18.41Q121.13-18.41 119.69-17.26 118.25-16.11 118.25-15.19L118.25-15.19 118.25-6.59Q118.25-3.76 118.64-2.25L118.64-2.25Q118.74-1.9 119.91-1.59 121.08-1.27 121.57-1.27L121.57-1.27Q121.71-1.27 121.76-0.68 121.81-0.1 121.71 0.15L121.71 0.15Q116.83-0.1 116.49-0.1L116.49-0.1Q116.2-0.1 111.17 0.15L111.17 0.15Q110.97-0.05 110.97-0.66 110.97-1.27 111.17-1.27L111.17-1.27Q111.75-1.27 112.9-1.59 114.05-1.9 114.15-2.25L114.15-2.25Q114.49-3.66 114.49-5.66L114.49-5.66 114.49-14.89Q114.49-16.8 113.8-17.53L113.8-17.53Q113.32-18.12 112.61-18.33 111.9-18.55 111.44-18.55 110.97-18.55 110.97-18.65L110.97-18.65Q110.97-19.82 111.26-19.87L111.26-19.87Q116.44-20.65 118-21.14L118-21.14Q118.05-21.14 118.15-21.17 118.25-21.19 118.25-21.19L118.25-21.19Q118.44-21.19 118.49-20.78 118.54-20.36 118.49-20.17L118.49-20.17Q118.3-18.8 118.3-18.21L118.3-18.21Q118.3-18.02 118.39-18.02L118.39-18.02Q118.44-18.02 118.54-18.12L118.54-18.12Q119.66-19.29 121.59-20.34 123.52-21.39 125.28-21.39ZM139.97-5.86L139.97-18.26 137.14-18.26Q136.9-18.26 136.9-19.29L136.9-19.29Q136.9-19.58 136.95-19.63L136.95-19.63Q138.36-20.26 140.02-22.22L140.02-22.22Q140.56-22.85 141.07-23.66 141.58-24.46 141.93-25.05 142.27-25.63 142.27-25.68L142.27-25.68Q143.73-25.68 143.73-25.44L143.73-25.44 143.73-20.61Q145-20.61 147.59-20.58 150.18-20.56 150.32-20.56L150.32-20.56Q150.71-20.56 150.71-20.12L150.71-20.12Q150.71-19.24 150.23-18.26L150.23-18.26 143.73-18.26 143.73-6.3Q143.73-4.35 144.73-3.17 145.73-2 147.35-2L147.35-2Q148.81-2 150.37-2.93L150.37-2.93Q150.52-3.03 150.81-2.51 151.11-2 151.06-1.95L151.06-1.95Q150.32-1.17 148.81-0.42 147.3 0.34 145.69 0.34L145.69 0.34Q143.24 0.34 141.61-1.27 139.97-2.88 139.97-5.86L139.97-5.86ZM163.26-19.43L163.26-19.43Q160.67-19.43 159.04-17.07 157.4-14.7 157.4-11.28L157.4-11.28Q157.4-7.28 159.48-4.42 161.55-1.56 164.34-1.56L164.34-1.56Q166.92-1.56 168.58-4 170.24-6.45 170.24-9.86L170.24-9.86Q170.24-13.82 168.14-16.63 166.04-19.43 163.26-19.43ZM163.8-21.34L163.8-21.34Q168.19-21.34 171.32-18.16 174.44-14.99 174.44-10.55L174.44-10.55Q174.44-6.05 171.39-2.86 168.34 0.34 163.9 0.34 159.45 0.34 156.33-2.86 153.2-6.05 153.2-10.55L153.2-10.55Q153.2-15.09 156.23-18.21 159.26-21.34 163.8-21.34ZM194.26-32.03L194.26-32.03Q194.85-32.03 200.71-32.32L200.71-32.32Q200.81-32.13 200.78-31.57 200.76-31.01 200.61-31.01L200.61-31.01Q199.78-31.01 198.73-30.59 197.68-30.18 197.68-29.35L197.68-29.35Q197.68-28.81 198.22-27.88L198.22-27.88 203.69-17.53Q203.93-17.29 204.17-17.63L204.17-17.63Q210.81-27.69 210.81-29.39L210.81-29.39Q210.81-29.93 209.84-30.47 208.86-31.01 207.45-31.01L207.45-31.01Q207.25-31.01 207.25-31.57 207.25-32.13 207.45-32.32L207.45-32.32Q212.87-32.03 213.21-32.03L213.21-32.03Q214.72-32.03 216.33-32.18 217.94-32.32 218.38-32.32L218.38-32.32Q218.48-32.03 218.48-31.59L218.48-31.59Q218.48-31.01 218.29-31.01L218.29-31.01Q217.7-31.01 216.23-30.57 214.77-30.13 214.28-29.49L214.28-29.49Q212.43-26.61 208.89-20.75 205.35-14.89 205.35-14.21L205.35-14.21 205.35-6.79Q205.35-3.76 205.74-2.25L205.74-2.25Q205.83-1.9 207.06-1.54 208.28-1.17 208.72-1.17L208.72-1.17Q208.91-1.17 208.91-0.54L208.91-0.54Q208.91-0.15 208.81 0.15L208.81 0.15Q203.93-0.1 203.34-0.1L203.34-0.1Q203.2-0.1 197.58 0.15L197.58 0.15Q197.39-0.05 197.39-0.54L197.39-0.54Q197.39-1.17 197.58-1.17L197.58-1.17Q198.17-1.17 199.36-1.51 200.56-1.86 200.71-2.25L200.71-2.25Q201.1-3.76 201.1-6.93L201.1-6.93 201.1-13.04Q201.1-13.72 200.05-15.75 199-17.77 193.97-26.81L193.97-26.81Q193.19-28.27 192.77-28.83 192.36-29.39 191.58-29.93L191.58-29.93Q191.04-30.32 189.97-30.66 188.89-31.01 188.4-31.01L188.4-31.01Q188.21-31.01 188.21-31.54L188.21-31.54Q188.21-32.13 188.4-32.32L188.4-32.32Q189.18-32.28 191.04-32.15 192.89-32.03 194.26-32.03ZM227.51-19.43L227.51-19.43Q224.92-19.43 223.29-17.07 221.65-14.7 221.65-11.28L221.65-11.28Q221.65-7.28 223.73-4.42 225.8-1.56 228.59-1.56L228.59-1.56Q231.17-1.56 232.83-4 234.49-6.45 234.49-9.86L234.49-9.86Q234.49-13.82 232.39-16.63 230.29-19.43 227.51-19.43ZM228.05-21.34L228.05-21.34Q232.44-21.34 235.57-18.16 238.69-14.99 238.69-10.55L238.69-10.55Q238.69-6.05 235.64-2.86 232.59 0.34 228.15 0.34 223.7 0.34 220.58-2.86 217.45-6.05 217.45-10.55L217.45-10.55Q217.45-15.09 220.48-18.21 223.51-21.34 228.05-21.34ZM261.79-16.65L261.79-16.65 261.79-6.88Q261.79-4.79 262.13-3.17L262.13-3.17Q262.23-2.83 262.67-2.64 263.1-2.44 263.59-2.39 264.08-2.34 264.57-2.34L264.57-2.34 265.01-2.29Q265.16-2.25 265.16-1.76L265.16-1.76Q265.16-1.61 265.03-1.29 264.91-0.98 264.76-0.98L264.76-0.98Q264.03-0.93 263.13-0.78 262.23-0.63 261.44-0.44 260.66-0.24 259.98-0.05 259.3 0.15 258.91 0.29L258.91 0.29 258.47 0.39Q258.08 0.39 258.08-0.39L258.08-0.39 258.08-2.88 257.98-3.13Q254.76 0.34 251.58 0.34L251.58 0.34Q249.77 0.34 248.48-0.56 247.19-1.46 246.58-2.95 245.97-4.44 245.72-5.83 245.48-7.23 245.48-8.74L245.48-8.74 245.48-14.89Q245.48-16.8 244.79-17.53L244.79-17.53Q244.31-18.12 243.6-18.33 242.89-18.55 242.43-18.55 241.96-18.55 241.96-18.65L241.96-18.65Q241.96-19.82 242.26-19.87L242.26-19.87Q247.43-20.65 248.99-21.14L248.99-21.14Q249.04-21.14 249.14-21.17 249.24-21.19 249.24-21.19L249.24-21.19Q249.43-21.19 249.48-20.78 249.53-20.36 249.48-20.17L249.48-20.17Q249.19-17.82 249.19-16.55L249.19-16.55 249.19-9.96Q249.19-6.2 250.31-4.42 251.43-2.64 253.97-2.64L253.97-2.64Q255.44-2.64 256.76-3.78 258.08-4.93 258.08-5.76L258.08-5.76 258.08-14.89Q258.08-16.8 257.39-17.53L257.39-17.53Q256.9-18.12 256.2-18.33 255.49-18.55 255.02-18.55 254.56-18.55 254.56-18.65L254.56-18.65Q254.56-19.82 254.85-19.87L254.85-19.87Q260.03-20.65 261.59-21.14L261.59-21.14Q261.64-21.14 261.74-21.17 261.84-21.19 261.84-21.19L261.84-21.19Q262.03-21.19 262.08-20.78 262.13-20.36 262.08-20.17L262.08-20.17Q261.79-17.82 261.79-16.65ZM280.09-21.34L280.09-21.34Q282.98-21.34 283.9-19.92L283.9-19.92Q283.9-18.21 283.37-17.43 282.83-16.65 282.05-16.65L282.05-16.65Q281.17-16.65 280.44-17.48 279.7-18.31 278.43-18.31L278.43-18.31Q276.92-18.31 275.8-16.89 274.67-15.48 274.67-13.92L274.67-13.92 274.67-6.59Q274.67-3.76 275.07-2.25L275.07-2.25Q275.16-1.9 276.36-1.59 277.56-1.27 278.04-1.27L278.04-1.27Q278.19-1.27 278.24-0.68 278.29-0.1 278.19 0.15L278.19 0.15Q273.31-0.1 272.92-0.1L272.92-0.1Q272.62-0.1 267.59 0.15L267.59 0.15Q267.4-0.05 267.4-0.66 267.4-1.27 267.59-1.27L267.59-1.27Q268.18-1.27 269.33-1.59 270.48-1.9 270.57-2.25L270.57-2.25Q270.91-3.66 270.91-5.66L270.91-5.66 270.91-14.89Q270.91-16.8 270.23-17.53L270.23-17.53Q269.74-18.12 269.03-18.33 268.33-18.55 267.86-18.55 267.4-18.55 267.4-18.65L267.4-18.65Q267.4-19.82 267.69-19.87L267.69-19.87Q272.87-20.65 274.43-21.14L274.43-21.14Q274.48-21.14 274.58-21.17 274.67-21.19 274.67-21.19L274.67-21.19Q274.87-21.19 274.92-20.78 274.97-20.36 274.92-20.17L274.92-20.17 274.63-17.72Q275.5-19.04 277.04-20.19 278.58-21.34 280.09-21.34ZM303.19-32.03L303.19-32.03Q305.04-32.03 307.9-32.08 310.75-32.13 311.68-32.13L311.68-32.13Q319.64-32.13 324.08-27.44 328.53-22.75 328.53-16.41L328.53-16.41Q328.53-9.33 324.03-4.59 319.54 0.15 311.63 0.15L311.63 0.15Q311.05 0.15 308.14 0.05 305.24-0.05 303.28 0L303.28 0 297.37 0.15Q297.23 0 297.23-0.59L297.23-0.59Q297.23-1.27 297.37-1.27L297.37-1.27Q298.01-1.27 299.25-1.61 300.5-1.95 300.74-2.39L300.74-2.39Q301.09-2.98 301.09-6.98L301.09-6.98 301.09-25.44Q301.09-28.32 300.74-29.64L300.74-29.64Q300.6-30.03 299.3-30.37 298.01-30.71 297.37-30.71L297.37-30.71Q297.18-30.71 297.18-31.3L297.18-31.3Q297.18-31.93 297.37-32.13L297.37-32.13Q299.91-32.03 303.19-32.03ZM305.33-26.12L305.33-26.12 305.33-6.79Q305.33-4.74 306.07-3.08L306.07-3.08Q306.26-2.59 308.68-2.34 311.1-2.1 312.41-2.1L312.41-2.1Q323.64-2.1 323.64-16.6L323.64-16.6Q323.64-22.17 320.69-26.07 317.74-29.98 312.07-29.98L312.07-29.98 311.83-29.98Q306.55-29.98 305.97-29.2L305.97-29.2Q305.33-28.32 305.33-26.12ZM345.08-21.34L345.08-21.34Q347.96-21.34 348.89-19.92L348.89-19.92Q348.89-18.21 348.35-17.43 347.81-16.65 347.03-16.65L347.03-16.65Q346.15-16.65 345.42-17.48 344.69-18.31 343.42-18.31L343.42-18.31Q341.9-18.31 340.78-16.89 339.66-15.48 339.66-13.92L339.66-13.92 339.66-6.59Q339.66-3.76 340.05-2.25L340.05-2.25Q340.15-1.9 341.34-1.59 342.54-1.27 343.03-1.27L343.03-1.27Q343.17-1.27 343.22-0.68 343.27-0.1 343.17 0.15L343.17 0.15Q338.29-0.1 337.9-0.1L337.9-0.1Q337.61-0.1 332.58 0.15L332.58 0.15Q332.38-0.05 332.38-0.66 332.38-1.27 332.58-1.27L332.58-1.27Q333.16-1.27 334.31-1.59 335.46-1.9 335.56-2.25L335.56-2.25Q335.9-3.66 335.9-5.66L335.9-5.66 335.9-14.89Q335.9-16.8 335.21-17.53L335.21-17.53Q334.73-18.12 334.02-18.33 333.31-18.55 332.85-18.55 332.38-18.55 332.38-18.65L332.38-18.65Q332.38-19.82 332.67-19.87L332.67-19.87Q337.85-20.65 339.41-21.14L339.41-21.14Q339.46-21.14 339.56-21.17 339.66-21.19 339.66-21.19L339.66-21.19Q339.85-21.19 339.9-20.78 339.95-20.36 339.9-20.17L339.9-20.17 339.61-17.72Q340.49-19.04 342.03-20.19 343.56-21.34 345.08-21.34ZM360.31-19.48L360.31-19.48Q357.77-19.48 356.43-17.31 355.08-15.14 355.08-13.72L355.08-13.72Q355.08-13.38 355.38-13.38L355.38-13.38 364.9-13.38Q365.14-13.38 365.14-13.87L365.14-13.87Q365.14-15.43 363.82-17.46 362.51-19.48 360.31-19.48ZM360.8-21.29L360.8-21.29Q363.04-21.29 364.75-20.43 366.46-19.58 367.36-18.24 368.27-16.89 368.68-15.5 369.1-14.11 369.1-12.74L369.1-12.74Q369.1-11.77 368.81-11.55 368.51-11.33 367.68-11.33L367.68-11.33 355.38-11.33Q354.99-11.33 354.99-11.08L354.99-11.08Q354.99-8.01 356.84-5.42 358.7-2.83 362.21-2.83L362.21-2.83Q363.24-2.83 364.17-3.03 365.09-3.22 365.75-3.49 366.41-3.76 366.88-4.03 367.34-4.3 367.68-4.54L367.68-4.54 368.02-4.79Q368.32-4.79 368.32-4.15L368.32-4.15Q368.32-3.76 368.02-3.27L368.02-3.27Q367.05-1.9 365.14-0.81 363.24 0.29 360.99 0.29L360.99 0.29Q356.94 0.29 354.03-2.76 351.13-5.81 351.13-10.21L351.13-10.21Q351.13-15.33 353.89-18.31 356.65-21.29 360.8-21.29ZM377.15-3.15Q377.98-2.44 379.3-2.44 380.62-2.44 381.84-3.25 383.06-4.05 383.06-4.88L383.06-4.88 383.06-9.91Q382.67-9.72 381.16-9.23 379.64-8.74 378.79-8.37 377.93-8.01 377.13-7.15 376.32-6.3 376.32-5.18L376.32-5.18Q376.32-3.86 377.15-3.15ZM381.74-21.29L381.74-21.29Q384.43-21.29 385.6-20 386.77-18.7 386.77-15.82L386.77-15.82 386.77-4.54Q386.77-3.52 387.31-2.83 387.85-2.15 388.77-2.15L388.77-2.15Q389.46-2.15 390.48-2.83L390.48-2.83Q390.68-2.83 390.68-2.44L390.68-2.44Q390.68-1.81 390.43-1.42L390.43-1.42Q388.43 0.29 387.02 0.29L387.02 0.29Q385.89 0.29 384.87-0.63 383.84-1.56 383.45-2.59L383.45-2.59Q383.4-2.59 383.08-2.27 382.77-1.95 382.23-1.54 381.69-1.12 380.99-0.68 380.28-0.24 379.33 0.05 378.37 0.34 377.4 0.34L377.4 0.34Q375.15 0.34 373.69-0.85 372.22-2.05 372.22-4.44L372.22-4.44Q372.22-5.52 372.76-6.47 373.29-7.42 374.03-8.03 374.76-8.64 376.03-9.28 377.3-9.91 378.2-10.23 379.11-10.55 380.57-11.04 382.04-11.52 382.62-11.77L382.62-11.77Q383.06-11.91 383.06-12.5L383.06-12.5 383.06-16.16Q383.06-17.72 382.08-18.58 381.11-19.43 379.74-19.43L379.74-19.43Q378.28-19.43 377.3-18.43 376.32-17.43 376.32-15.82L376.32-15.82Q376.32-14.11 374.32-14.11L374.32-14.11Q372.95-14.11 372.42-15.04L372.42-15.04Q372.42-17.14 375.49-19.21 378.57-21.29 381.74-21.29ZM406.59-21.39L406.59-21.39Q408.55-21.39 409.84-20.34 411.13-19.29 411.62-17.92L411.62-17.92Q415.28-21.39 419.19-21.39L419.19-21.39Q425.34-21.39 425.34-12.01L425.34-12.01 425.34-6.59Q425.34-3.76 425.73-2.25L425.73-2.25Q425.83-1.9 427-1.59 428.18-1.27 428.66-1.27L428.66-1.27Q428.81-1.27 428.86-0.68 428.91-0.1 428.81 0.15L428.81 0.15Q423.93-0.1 423.59-0.1L423.59-0.1Q423.29-0.1 418.26 0.15L418.26 0.15Q418.07-0.05 418.07-0.66 418.07-1.27 418.26-1.27L418.26-1.27Q418.85-1.27 420-1.59 421.14-1.9 421.24-2.25L421.24-2.25Q421.58-3.66 421.58-5.37L421.58-5.37 421.58-10.89Q421.58-18.41 416.65-18.41L416.65-18.41Q414.85-18.41 413.53-17.36 412.21-16.31 412.21-15.63L412.21-15.63 412.26-15.43Q412.26-15.23 412.26-15.19L412.26-15.19Q412.45-13.96 412.45-11.67L412.45-11.67 412.45-6.15Q412.45-3.76 412.84-2.25L412.84-2.25Q412.94-1.9 414.11-1.59 415.28-1.27 415.77-1.27L415.77-1.27Q415.92-1.27 415.97-0.68 416.02-0.1 415.92 0.15L415.92 0.15Q411.04-0.1 410.69-0.1L410.69-0.1Q410.4-0.1 405.37 0.15L405.37 0.15Q405.18-0.05 405.18-0.66 405.18-1.27 405.37-1.27L405.37-1.27Q405.96-1.27 407.11-1.59 408.25-1.9 408.35-2.25L408.35-2.25Q408.69-3.66 408.69-5.66L408.69-5.66 408.69-10.64Q408.69-18.41 404.01-18.41L404.01-18.41Q402.54-18.41 401.05-17.31 399.56-16.21 399.56-15.19L399.56-15.19 399.56-6.59Q399.56-3.76 399.95-2.25L399.95-2.25Q400.05-1.9 401.22-1.59 402.39-1.27 402.88-1.27L402.88-1.27Q403.03-1.27 403.08-0.68 403.13-0.1 403.03 0.15L403.03 0.15Q398.15-0.1 397.8-0.1L397.8-0.1Q397.51-0.1 392.48 0.15L392.48 0.15Q392.29-0.05 392.29-0.66 392.29-1.27 392.48-1.27L392.48-1.27Q393.07-1.27 394.22-1.59 395.36-1.9 395.46-2.25L395.46-2.25Q395.8-3.66 395.8-5.66L395.8-5.66 395.8-14.89Q395.8-16.8 395.12-17.53L395.12-17.53Q394.63-18.12 393.92-18.33 393.21-18.55 392.75-18.55 392.29-18.55 392.29-18.65L392.29-18.65Q392.29-19.82 392.58-19.87L392.58-19.87Q397.76-20.65 399.32-21.14L399.32-21.14Q399.37-21.14 399.46-21.17 399.56-21.19 399.56-21.19L399.56-21.19Q399.76-21.19 399.81-20.78 399.85-20.36 399.81-20.17L399.81-20.17Q399.61-18.8 399.61-18.21L399.61-18.21Q399.61-18.02 399.71-18.02L399.71-18.02Q399.76-18.02 399.85-18.12L399.85-18.12Q400.98-19.29 402.91-20.34 404.84-21.39 406.59-21.39ZM465.96-6.59L465.96-6.59 465.96-15.19Q465.96-15.19 465.87-15.38L465.87-15.38Q461.28-15.48 458.64-15.48L458.64-15.48Q451.12-15.48 451.12-15.23L451.12-15.23 451.12-6.79Q451.12-3.96 451.56-2.25L451.56-2.25Q451.66-1.9 452.93-1.59 454.2-1.27 454.68-1.27L454.68-1.27Q454.83-1.27 454.85-0.68 454.88-0.1 454.78 0.15L454.78 0.15Q449.9-0.1 449.12-0.1L449.12-0.1Q448.87-0.1 443.26 0.15L443.26 0.15Q443.06-0.05 443.06-0.59L443.06-0.59Q443.06-1.27 443.26-1.27L443.26-1.27Q443.89-1.27 445.14-1.56 446.38-1.86 446.53-2.25L446.53-2.25Q446.87-3.56 446.87-6.59L446.87-6.59 446.87-25.54Q446.87-28.56 446.53-29.88L446.53-29.88Q446.38-30.27 445.14-30.59 443.89-30.91 443.26-30.91L443.26-30.91Q443.06-30.91 443.06-31.54L443.06-31.54Q443.06-32.13 443.26-32.32L443.26-32.32Q443.89-32.28 445.85-32.15 447.8-32.03 449.12-32.03L449.12-32.03Q450.09-32.03 451.02-32.08 451.95-32.13 453.02-32.2 454.1-32.28 454.78-32.32L454.78-32.32Q454.88-32.13 454.85-31.52 454.83-30.91 454.68-30.91L454.68-30.91Q454.2-30.91 452.93-30.57 451.66-30.22 451.56-29.88L451.56-29.88Q451.12-28.17 451.12-25.34L451.12-25.34 451.12-18.07 451.22-17.92Q456-17.82 458.64-17.82L458.64-17.82Q461.47-17.82 465.87-17.92L465.87-17.92Q465.96-18.02 465.96-18.12L465.96-18.12 465.96-25.54Q465.96-28.56 465.62-29.88L465.62-29.88Q465.47-30.27 464.23-30.59 462.98-30.91 462.35-30.91L462.35-30.91Q462.15-30.91 462.15-31.52 462.15-32.13 462.35-32.32L462.35-32.32Q462.94-32.28 464.94-32.15 466.94-32.03 468.26-32.03L468.26-32.03Q469.19-32.03 470.11-32.08 471.04-32.13 472.09-32.2 473.14-32.28 473.82-32.32L473.82-32.32Q473.92-32.03 473.92-31.59L473.92-31.59Q473.92-30.91 473.73-30.91L473.73-30.91Q473.24-30.91 471.97-30.57 470.7-30.22 470.6-29.88L470.6-29.88Q470.21-28.37 470.21-25.34L470.21-25.34 470.21-6.79Q470.21-3.76 470.6-2.25L470.6-2.25Q470.7-1.9 471.97-1.59 473.24-1.27 473.73-1.27L473.73-1.27Q473.92-1.27 473.92-0.54L473.92-0.54Q473.92-0.15 473.82 0.15L473.82 0.15Q468.94-0.1 468.26-0.1L468.26-0.1Q467.97-0.1 462.35 0.15L462.35 0.15Q462.15-0.05 462.15-0.66 462.15-1.27 462.35-1.27L462.35-1.27Q462.98-1.27 464.23-1.56 465.47-1.86 465.62-2.25L465.62-2.25Q465.96-3.56 465.96-6.59ZM487.59-19.43L487.59-19.43Q485-19.43 483.37-17.07 481.73-14.7 481.73-11.28L481.73-11.28Q481.73-7.28 483.81-4.42 485.88-1.56 488.67-1.56L488.67-1.56Q491.25-1.56 492.91-4 494.57-6.45 494.57-9.86L494.57-9.86Q494.57-13.82 492.47-16.63 490.37-19.43 487.59-19.43ZM488.13-21.34L488.13-21.34Q492.52-21.34 495.65-18.16 498.77-14.99 498.77-10.55L498.77-10.55Q498.77-6.05 495.72-2.86 492.67 0.34 488.23 0.34 483.78 0.34 480.66-2.86 477.53-6.05 477.53-10.55L477.53-10.55Q477.53-15.09 480.56-18.21 483.59-21.34 488.13-21.34ZM516.25-21.39L516.25-21.39Q518.2-21.39 519.5-20.34 520.79-19.29 521.28-17.92L521.28-17.92Q524.94-21.39 528.85-21.39L528.85-21.39Q535-21.39 535-12.01L535-12.01 535-6.59Q535-3.76 535.39-2.25L535.39-2.25Q535.49-1.9 536.66-1.59 537.83-1.27 538.32-1.27L538.32-1.27Q538.47-1.27 538.52-0.68 538.57-0.1 538.47 0.15L538.47 0.15Q533.59-0.1 533.24-0.1L533.24-0.1Q532.95-0.1 527.92 0.15L527.92 0.15Q527.73-0.05 527.73-0.66 527.73-1.27 527.92-1.27L527.92-1.27Q528.51-1.27 529.65-1.59 530.8-1.9 530.9-2.25L530.9-2.25Q531.24-3.66 531.24-5.37L531.24-5.37 531.24-10.89Q531.24-18.41 526.31-18.41L526.31-18.41Q524.5-18.41 523.18-17.36 521.87-16.31 521.87-15.63L521.87-15.63 521.92-15.43Q521.92-15.23 521.92-15.19L521.92-15.19Q522.11-13.96 522.11-11.67L522.11-11.67 522.11-6.15Q522.11-3.76 522.5-2.25L522.5-2.25Q522.6-1.9 523.77-1.59 524.94-1.27 525.43-1.27L525.43-1.27Q525.58-1.27 525.63-0.68 525.67-0.1 525.58 0.15L525.58 0.15Q520.69-0.1 520.35-0.1L520.35-0.1Q520.06-0.1 515.03 0.15L515.03 0.15Q514.84-0.05 514.84-0.66 514.84-1.27 515.03-1.27L515.03-1.27Q515.62-1.27 516.76-1.59 517.91-1.9 518.01-2.25L518.01-2.25Q518.35-3.66 518.35-5.66L518.35-5.66 518.35-10.64Q518.35-18.41 513.66-18.41L513.66-18.41Q512.2-18.41 510.71-17.31 509.22-16.21 509.22-15.19L509.22-15.19 509.22-6.59Q509.22-3.76 509.61-2.25L509.61-2.25Q509.71-1.9 510.88-1.59 512.05-1.27 512.54-1.27L512.54-1.27Q512.69-1.27 512.74-0.68 512.78-0.1 512.69 0.15L512.69 0.15Q507.8-0.1 507.46-0.1L507.46-0.1Q507.17-0.1 502.14 0.15L502.14 0.15Q501.94-0.05 501.94-0.66 501.94-1.27 502.14-1.27L502.14-1.27Q502.73-1.27 503.87-1.59 505.02-1.9 505.12-2.25L505.12-2.25Q505.46-3.66 505.46-5.66L505.46-5.66 505.46-14.89Q505.46-16.8 504.78-17.53L504.78-17.53Q504.29-18.12 503.58-18.33 502.87-18.55 502.41-18.55 501.94-18.55 501.94-18.65L501.94-18.65Q501.94-19.82 502.24-19.87L502.24-19.87Q507.41-20.65 508.98-21.14L508.98-21.14Q509.02-21.14 509.12-21.17 509.22-21.19 509.22-21.19L509.22-21.19Q509.42-21.19 509.46-20.78 509.51-20.36 509.46-20.17L509.46-20.17Q509.27-18.8 509.27-18.21L509.27-18.21Q509.27-18.02 509.37-18.02L509.37-18.02Q509.42-18.02 509.51-18.12L509.51-18.12Q510.64-19.29 512.56-20.34 514.49-21.39 516.25-21.39ZM550.67-19.48L550.67-19.48Q548.13-19.48 546.79-17.31 545.45-15.14 545.45-13.72L545.45-13.72Q545.45-13.38 545.74-13.38L545.74-13.38 555.26-13.38Q555.51-13.38 555.51-13.87L555.51-13.87Q555.51-15.43 554.19-17.46 552.87-19.48 550.67-19.48ZM551.16-21.29L551.16-21.29Q553.41-21.29 555.12-20.43 556.82-19.58 557.73-18.24 558.63-16.89 559.05-15.5 559.46-14.11 559.46-12.74L559.46-12.74Q559.46-11.77 559.17-11.55 558.88-11.33 558.05-11.33L558.05-11.33 545.74-11.33Q545.35-11.33 545.35-11.08L545.35-11.08Q545.35-8.01 547.21-5.42 549.06-2.83 552.58-2.83L552.58-2.83Q553.6-2.83 554.53-3.03 555.46-3.22 556.12-3.49 556.78-3.76 557.24-4.03 557.7-4.3 558.05-4.54L558.05-4.54 558.39-4.79Q558.68-4.79 558.68-4.15L558.68-4.15Q558.68-3.76 558.39-3.27L558.39-3.27Q557.41-1.9 555.51-0.81 553.6 0.29 551.36 0.29L551.36 0.29Q547.3 0.29 544.4-2.76 541.49-5.81 541.49-10.21L541.49-10.21Q541.49-15.33 544.25-18.31 547.01-21.29 551.16-21.29ZM566.44 0.68L566.44 0.68Q566.44-0.2 565.71-1.71 564.98-3.22 564.98-3.71L564.98-3.71Q564.98-4.79 566.05-5.54 567.13-6.3 568.49-6.3L568.49-6.3Q569.13-6.3 569.66-6.1L569.66-6.1Q570.3-5.18 570.3-2.98L570.3-2.98Q570.3-2.05 570.2-1.71L570.2-1.71Q569.52 1.46 568.3 3.44 567.08 5.42 564 7.96L564 7.96 563.95 7.96Q563.76 7.96 563.29 7.57 562.83 7.18 562.83 6.88L562.83 6.88Q562.83 6.79 563.39 6.27 563.95 5.76 564.63 5.08 565.32 4.39 565.88 3.17 566.44 1.95 566.44 0.68ZM594.39-32.13Q597.74-32.03 599.88-32.03 602.03-32.03 605.4-32.13 608.77-32.23 610.63-32.23L610.63-32.23Q611.85-32.23 613.99-32.76L613.99-32.76 614.92-25.78Q614.58-25.44 613.75-25.44L613.75-25.44Q613.31-25.44 613.26-25.68L613.26-25.68Q612.58-28.42 611.58-29.22 610.58-30.03 607.79-30.03L607.79-30.03Q602.62-30.03 602.42-29.3L602.42-29.3Q601.98-27.73 601.98-24.41L601.98-24.41 601.98-6.79Q601.98-3.96 602.42-2.25L602.42-2.25Q602.52-1.9 603.79-1.59 605.06-1.27 605.55-1.27L605.55-1.27Q605.74-1.27 605.74-0.54L605.74-0.54Q605.74-0.15 605.65 0.15L605.65 0.15Q600.76-0.1 599.98-0.1L599.98-0.1Q599.74-0.1 594.12 0.15L594.12 0.15Q593.93-0.05 593.93-0.59L593.93-0.59Q593.93-1.27 594.12-1.27L594.12-1.27Q594.76-1.27 596-1.56 597.25-1.86 597.39-2.25L597.39-2.25Q597.74-3.56 597.74-6.59L597.74-6.59 597.74-24.27Q597.74-28.52 597.3-29.3L597.3-29.3Q596.91-30.03 592.02-30.03L592.02-30.03Q589.24-30.03 588.24-29.22 587.24-28.42 586.55-25.68L586.55-25.68Q586.5-25.44 586.07-25.44L586.07-25.44Q585.24-25.44 584.89-25.78L584.89-25.78 585.82-32.76Q587.97-32.23 589.19-32.23L589.19-32.23Q591.05-32.23 594.39-32.13ZM631.42-21.39L631.42-21.39Q634.7-21.39 636.11-19.04 637.53-16.7 637.53-11.82L637.53-11.82 637.53-6.54Q637.53-3.76 637.92-2.25L637.92-2.25Q638.02-1.9 639.19-1.59 640.36-1.27 640.85-1.27L640.85-1.27Q640.99-1.27 641.04-0.68 641.09-0.1 640.99 0.15L640.99 0.15Q636.11-0.1 635.77-0.1L635.77-0.1Q635.62-0.1 630.64 0.15L630.64 0.15Q630.45-0.05 630.45-0.66 630.45-1.27 630.64-1.27L630.64-1.27Q631.23-1.27 632.28-1.59 633.33-1.9 633.43-2.25L633.43-2.25Q633.77-3.66 633.77-5.66L633.77-5.66 633.77-10.84Q633.77-15.33 632.52-16.87 631.28-18.41 628.69-18.41L628.69-18.41Q627.22-18.41 625.78-17.26 624.34-16.11 624.34-15.23L624.34-15.23 624.34-6.59Q624.34-3.76 624.73-2.25L624.73-2.25Q624.83-1.9 626-1.59 627.18-1.27 627.66-1.27L627.66-1.27Q627.81-1.27 627.86-0.68 627.91-0.1 627.81 0.15L627.81 0.15Q622.93-0.1 622.59-0.1L622.59-0.1Q622.29-0.1 617.26 0.15L617.26 0.15Q617.07-0.05 617.07-0.66 617.07-1.27 617.26-1.27L617.26-1.27Q617.85-1.27 619-1.59 620.14-1.9 620.24-2.25L620.24-2.25Q620.58-3.66 620.58-5.62L620.58-5.62 620.58-26.81Q620.58-28.47 620.29-29.93L620.29-29.93Q620.05-30.71 617.8-30.71L617.8-30.71 617.36-30.71Q617.07-30.71 617.07-31.25L617.07-31.25Q617.07-32.03 617.36-32.03L617.36-32.03Q618.83-32.18 620.07-32.42 621.32-32.67 622.02-32.91 622.73-33.15 623.22-33.37 623.71-33.59 623.9-33.74L623.9-33.74 624.15-33.89 624.25-33.89Q624.44-33.89 624.64-33.62 624.83-33.35 624.88-33.11L624.88-33.11Q624.34-31.54 624.34-28.86L624.34-28.86 624.34-18.16Q624.34-17.97 624.44-17.97L624.44-17.97Q624.49-17.97 624.59-18.07L624.59-18.07Q625.66-19.24 627.64-20.31 629.62-21.39 631.42-21.39ZM656.37-21.34L656.37-21.34Q659.25-21.34 660.18-19.92L660.18-19.92Q660.18-18.21 659.64-17.43 659.11-16.65 658.33-16.65L658.33-16.65Q657.45-16.65 656.71-17.48 655.98-18.31 654.71-18.31L654.71-18.31Q653.2-18.31 652.08-16.89 650.95-15.48 650.95-13.92L650.95-13.92 650.95-6.59Q650.95-3.76 651.34-2.25L651.34-2.25Q651.44-1.9 652.64-1.59 653.83-1.27 654.32-1.27L654.32-1.27Q654.47-1.27 654.52-0.68 654.57-0.1 654.47 0.15L654.47 0.15Q649.59-0.1 649.2-0.1L649.2-0.1Q648.9-0.1 643.87 0.15L643.87 0.15Q643.68-0.05 643.68-0.66 643.68-1.27 643.87-1.27L643.87-1.27Q644.46-1.27 645.61-1.59 646.75-1.9 646.85-2.25L646.85-2.25Q647.19-3.66 647.19-5.66L647.19-5.66 647.19-14.89Q647.19-16.8 646.51-17.53L646.51-17.53Q646.02-18.12 645.31-18.33 644.61-18.55 644.14-18.55 643.68-18.55 643.68-18.65L643.68-18.65Q643.68-19.82 643.97-19.87L643.97-19.87Q649.15-20.65 650.71-21.14L650.71-21.14Q650.76-21.14 650.86-21.17 650.95-21.19 650.95-21.19L650.95-21.19Q651.15-21.19 651.2-20.78 651.25-20.36 651.2-20.17L651.2-20.17 650.9-17.72Q651.78-19.04 653.32-20.19 654.86-21.34 656.37-21.34ZM672.48-19.43L672.48-19.43Q669.9-19.43 668.26-17.07 666.62-14.7 666.62-11.28L666.62-11.28Q666.62-7.28 668.7-4.42 670.77-1.56 673.56-1.56L673.56-1.56Q676.15-1.56 677.81-4 679.47-6.45 679.47-9.86L679.47-9.86Q679.47-13.82 677.37-16.63 675.27-19.43 672.48-19.43ZM673.02-21.34L673.02-21.34Q677.42-21.34 680.54-18.16 683.67-14.99 683.67-10.55L683.67-10.55Q683.67-6.05 680.61-2.86 677.56 0.34 673.12 0.34 668.67 0.34 665.55-2.86 662.42-6.05 662.42-10.55L662.42-10.55Q662.42-15.09 665.45-18.21 668.48-21.34 673.02-21.34ZM706.76-16.65L706.76-16.65 706.76-6.88Q706.76-4.79 707.1-3.17L707.1-3.17Q707.2-2.83 707.64-2.64 708.08-2.44 708.57-2.39 709.05-2.34 709.54-2.34L709.54-2.34 709.98-2.29Q710.13-2.25 710.13-1.76L710.13-1.76Q710.13-1.61 710.01-1.29 709.88-0.98 709.74-0.98L709.74-0.98Q709-0.93 708.1-0.78 707.2-0.63 706.42-0.44 705.64-0.24 704.95-0.05 704.27 0.15 703.88 0.29L703.88 0.29 703.44 0.39Q703.05 0.39 703.05-0.39L703.05-0.39 703.05-2.88 702.95-3.13Q699.73 0.34 696.55 0.34L696.55 0.34Q694.75 0.34 693.45-0.56 692.16-1.46 691.55-2.95 690.94-4.44 690.69-5.83 690.45-7.23 690.45-8.74L690.45-8.74 690.45-14.89Q690.45-16.8 689.77-17.53L689.77-17.53Q689.28-18.12 688.57-18.33 687.86-18.55 687.4-18.55 686.93-18.55 686.93-18.65L686.93-18.65Q686.93-19.82 687.23-19.87L687.23-19.87Q692.4-20.65 693.97-21.14L693.97-21.14Q694.01-21.14 694.11-21.17 694.21-21.19 694.21-21.19L694.21-21.19Q694.4-21.19 694.45-20.78 694.5-20.36 694.45-20.17L694.45-20.17Q694.16-17.82 694.16-16.55L694.16-16.55 694.16-9.96Q694.16-6.2 695.28-4.42 696.41-2.64 698.95-2.64L698.95-2.64Q700.41-2.64 701.73-3.78 703.05-4.93 703.05-5.76L703.05-5.76 703.05-14.89Q703.05-16.8 702.36-17.53L702.36-17.53Q701.88-18.12 701.17-18.33 700.46-18.55 700-18.55 699.53-18.55 699.53-18.65L699.53-18.65Q699.53-19.82 699.82-19.87L699.82-19.87Q705-20.65 706.56-21.14L706.56-21.14Q706.61-21.14 706.71-21.17 706.81-21.19 706.81-21.19L706.81-21.19Q707-21.19 707.05-20.78 707.1-20.36 707.05-20.17L707.05-20.17Q706.76-17.82 706.76-16.65ZM729.27 4.15L729.27 4.15Q729.27 2.1 727.26 1.39 725.26 0.68 719.3 0.68L719.3 0.68Q719.21 0.68 719.01 0.78L719.01 0.78Q718.96 0.83 718.57 1 718.18 1.17 718.08 1.22 717.99 1.27 717.64 1.49 717.3 1.71 717.18 1.78 717.06 1.86 716.77 2.08 716.47 2.29 716.38 2.47 716.28 2.64 716.08 2.88 715.89 3.13 715.81 3.37 715.74 3.61 715.67 3.93 715.59 4.25 715.59 4.59L715.59 4.59Q715.59 6.69 717.77 7.98 719.94 9.28 722.58 9.28L722.58 9.28Q725.51 9.28 727.39 7.71 729.27 6.15 729.27 4.15ZM716.77-14.45L716.77-14.45Q716.77-12.21 718.16-10.64 719.55-9.08 721.4-9.08L721.4-9.08Q723.31-9.08 724.55-10.55 725.8-12.01 725.8-14.06L725.8-14.06Q725.8-16.31 724.41-17.87 723.02-19.43 721.16-19.43L721.16-19.43Q719.26-19.43 718.01-17.97 716.77-16.5 716.77-14.45ZM721.36-21.09L721.36-21.09Q723.16-21.09 725.51-20.46 727.85-19.82 729.36-19.82L729.36-19.82 732.2-19.82Q732.49-19.73 732.49-18.6L732.49-18.6Q732.49-17.92 732.2-17.92L732.2-17.92 728.73-17.92Q728.53-17.92 728.53-17.77L728.53-17.77 729.02-16.6Q729.56-15.43 729.56-14.26L729.56-14.26Q729.56-11.62 727.21-9.52 724.87-7.42 721.45-7.42L721.45-7.42Q719.89-7.42 718.72-7.62L718.72-7.62Q718.08-7.28 717.38-6.4 716.67-5.52 716.67-4.83 716.67-4.15 717.06-3.74 717.45-3.32 718.18-3.15 718.91-2.98 719.6-2.91 720.28-2.83 721.21-2.83L721.21-2.83Q721.45-2.83 721.55-2.83L721.55-2.83Q727.61-2.73 730.05-1.59 732.49-0.44 732.49 1.86L732.49 1.86Q732.49 5.62 729.31 8.33 726.14 11.04 721.16 11.08L721.16 11.08Q717.69 11.13 714.93 9.77 712.18 8.4 712.18 5.66L712.18 5.66Q712.18 2.64 716.96 0.49L716.96 0.49Q715.64 0.29 714.52-0.73 713.4-1.76 713.4-3.22L713.4-3.22Q713.4-4.49 714.5-5.86 715.59-7.23 716.96-8.11L716.96-8.11Q715.5-8.64 714.25-10.42 713.01-12.21 713.01-14.26L713.01-14.26Q713.01-17.14 715.42-19.12 717.84-21.09 721.36-21.09ZM749.14-21.39L749.14-21.39Q752.41-21.39 753.82-19.04 755.24-16.7 755.24-11.82L755.24-11.82 755.24-6.54Q755.24-3.76 755.63-2.25L755.63-2.25Q755.73-1.9 756.9-1.59 758.07-1.27 758.56-1.27L758.56-1.27Q758.71-1.27 758.76-0.68 758.8-0.1 758.71 0.15L758.71 0.15Q753.82-0.1 753.48-0.1L753.48-0.1Q753.34-0.1 748.35 0.15L748.35 0.15Q748.16-0.05 748.16-0.66 748.16-1.27 748.35-1.27L748.35-1.27Q748.94-1.27 749.99-1.59 751.04-1.9 751.14-2.25L751.14-2.25Q751.48-3.66 751.48-5.66L751.48-5.66 751.48-10.84Q751.48-15.33 750.23-16.87 748.99-18.41 746.4-18.41L746.4-18.41Q744.94-18.41 743.5-17.26 742.06-16.11 742.06-15.23L742.06-15.23 742.06-6.59Q742.06-3.76 742.45-2.25L742.45-2.25Q742.54-1.9 743.72-1.59 744.89-1.27 745.38-1.27L745.38-1.27Q745.52-1.27 745.57-0.68 745.62-0.1 745.52 0.15L745.52 0.15Q740.64-0.1 740.3-0.1L740.3-0.1Q740.01-0.1 734.98 0.15L734.98 0.15Q734.78-0.05 734.78-0.66 734.78-1.27 734.98-1.27L734.98-1.27Q735.56-1.27 736.71-1.59 737.86-1.9 737.95-2.25L737.95-2.25Q738.3-3.66 738.3-5.62L738.3-5.62 738.3-26.81Q738.3-28.47 738-29.93L738-29.93Q737.76-30.71 735.51-30.71L735.51-30.71 735.07-30.71Q734.78-30.71 734.78-31.25L734.78-31.25Q734.78-32.03 735.07-32.03L735.07-32.03Q736.54-32.18 737.78-32.42 739.03-32.67 739.74-32.91 740.44-33.15 740.93-33.37 741.42-33.59 741.62-33.74L741.62-33.74 741.86-33.89 741.96-33.89Q742.15-33.89 742.35-33.62 742.54-33.35 742.59-33.11L742.59-33.11Q742.06-31.54 742.06-28.86L742.06-28.86 742.06-18.16Q742.06-17.97 742.15-17.97L742.15-17.97Q742.2-17.97 742.3-18.07L742.3-18.07Q743.37-19.24 745.35-20.31 747.33-21.39 749.14-21.39ZM788.34-32.37L788.78-32.23 798.55-6.45Q799.42-4.15 799.96-2.93L799.96-2.93Q800.25-2.2 801.47-1.73 802.7-1.27 803.28-1.27L803.28-1.27Q803.48-1.27 803.48-0.34L803.48-0.34Q803.48-0.15 803.38 0.15L803.38 0.15Q798.5-0.1 798.01-0.1L798.01-0.1Q797.96-0.1 792.34 0.15L792.34 0.15Q792.15-0.05 792.17-0.66 792.2-1.27 792.39-1.27L792.39-1.27Q792.98-1.27 793.86-1.51 794.74-1.76 794.88-2.15L794.88-2.15Q794.98-2.54 794.98-2.93L794.98-2.93Q794.98-3.56 794.81-4.42 794.64-5.27 794.49-5.76L794.49-5.76 794.3-6.3 792.3-11.82Q792.15-12.01 792-12.01L792-12.01Q790.1-12.16 788.29-12.16L788.29-12.16Q785.75-12.16 782.09-11.91L782.09-11.91 781.85-11.77 779.75-6.4Q778.92-3.96 778.92-3.03L778.92-3.03Q778.92-2.34 779.31-2.05L779.31-2.05Q779.75-1.71 780.72-1.49 781.7-1.27 782.14-1.27L782.14-1.27Q782.29-1.27 782.31-0.68 782.33-0.1 782.24 0.15L782.24 0.15Q777.35-0.1 777.21-0.1L777.21-0.1Q776.23-0.1 775.5-0.05 774.77 0 773.86 0.05 772.96 0.1 772.13 0.15L772.13 0.15Q771.93-0.05 771.93-0.59L771.93-0.59Q771.93-1.27 772.13-1.27L772.13-1.27Q772.72-1.27 773.64-1.51 774.57-1.76 774.91-2.2L774.91-2.2Q775.94-3.52 777.21-6.79L777.21-6.79 785.7-28.61Q785.8-28.86 785.97-29.39 786.14-29.93 786.24-30.2 786.34-30.47 786.53-30.88 786.73-31.3 786.88-31.49 787.02-31.69 787.24-31.93 787.46-32.18 787.73-32.28 788-32.37 788.34-32.37L788.34-32.37ZM783.12-14.6L783.12-14.6Q785.65-14.5 786.58-14.5L786.58-14.5Q788.73-14.5 791.03-14.65L791.03-14.65 791.17-14.89 787.22-25.68 783.02-14.79Q783.02-14.6 783.12-14.6ZM818.37-30.08L818.37-30.08Q816.17-30.08 814.95-29.74L814.95-29.74Q814.75-29.69 814.63-29.37 814.51-29.05 814.44-27.91 814.36-26.76 814.36-24.37L814.36-24.37 814.36-18.46Q814.36-17.04 818.61-17.04L818.61-17.04 819.83-17.04Q821.54-17.04 823.37-18.75 825.2-20.46 825.2-23.29L825.2-23.29Q825.2-30.08 818.37-30.08ZM819.15-32.23L819.15-32.23Q820.81-32.23 822.52-31.74 824.23-31.25 825.89-30.27 827.55-29.3 828.62-27.49 829.7-25.68 829.7-23.29L829.7-23.29Q829.7-21.24 828.16-18.99 826.62-16.75 823.98-15.53L823.98-15.53Q823.49-15.33 823.69-15.04L823.69-15.04Q826.13-9.91 829.3-6.45L829.3-6.45Q833.99-1.32 836.92-1.32L836.92-1.32Q837.07-1.03 837.07-0.63L837.07-0.63Q837.07-0.2 836.92 0.1L836.92 0.1Q836.38 0.24 835.6 0.24L835.6 0.24Q828.77 0.24 823.74-6.79L823.74-6.79Q822.96-7.86 821.96-9.35 820.95-10.84 820.49-11.5 820.03-12.16 819.42-12.94 818.81-13.72 818.34-14.11 817.88-14.5 817.34-14.75L817.34-14.75Q816.8-14.94 815.53-14.94L815.53-14.94Q815.14-14.94 814.95-14.92 814.75-14.89 814.56-14.7 814.36-14.5 814.36-14.11L814.36-14.11 814.36-6.93Q814.36-3.66 814.75-2.69L814.75-2.69Q815-2.05 816.49-1.66 817.98-1.27 818.61-1.27L818.61-1.27Q818.81-1.27 818.81-0.59L818.81-0.59Q818.81-0.15 818.71 0.15L818.71 0.15Q813.83-0.1 812.36-0.1L812.36-0.1 806.4 0.15Q806.26 0 806.26-0.73L806.26-0.73Q806.26-1.37 806.4-1.37L806.4-1.37Q807.09-1.37 808.31-1.66 809.53-1.95 809.77-2.39L809.77-2.39Q810.12-2.98 810.12-6.98L810.12-6.98 810.12-25.44Q810.12-28.32 809.77-29.64L809.77-29.64Q809.63-30.03 808.33-30.37 807.04-30.71 806.4-30.71L806.4-30.71Q806.21-30.71 806.21-31.3L806.21-31.3Q806.21-31.93 806.4-32.13L806.4-32.13 812.26-32.03Q813.73-32.03 815.73-32.13 817.73-32.23 819.15-32.23ZM862.26-33.94L862.26-33.94Q865.77-33.94 866.9-32.03L866.9-32.03Q866.9-28.96 865.14-28.96L865.14-28.96Q864.5-28.96 863.92-29.71 863.33-30.47 862.58-31.25 861.82-32.03 860.74-32.03L860.74-32.03Q858.6-32.03 857.42-29.39 856.25-26.76 856.25-23.19L856.25-23.19 856.25-20.7Q856.25-20.46 856.5-20.46L856.5-20.46 861.92-20.46Q862.16-20.46 862.16-20.12L862.16-20.12Q862.16-19.34 861.57-18.16L861.57-18.16 856.55-18.16Q856.25-18.16 856.25-17.87L856.25-17.87 856.25-6.59Q856.25-3.96 856.69-2.25L856.69-2.25Q856.79-1.9 857.89-1.59 858.99-1.27 859.43-1.27L859.43-1.27Q859.57-1.27 859.62-0.68 859.67-0.1 859.57 0.15L859.57 0.15Q854.69-0.1 854.35-0.1L854.35-0.1Q854.2-0.1 849.22 0.15L849.22 0.15Q849.12 0.05 849.07-0.32 849.03-0.68 849.07-0.98 849.12-1.27 849.22-1.27L849.22-1.27Q849.81-1.27 850.88-1.59 851.96-1.9 852.05-2.25L852.05-2.25Q852.54-4.15 852.54-6.59L852.54-6.59 852.54-17.82Q852.54-18.16 852.3-18.16L852.3-18.16 849.71-18.16Q849.56-18.16 849.56-18.46L849.56-18.46Q849.56-18.9 850.34-19.68 851.13-20.46 852-20.46L852-20.46 852.3-20.46Q852.54-20.46 852.54-20.75L852.54-20.75 852.54-21.39Q852.54-26.51 855.59-30.22 858.65-33.94 862.26-33.94ZM883.69-16.65L883.69-16.65 883.69-6.88Q883.69-4.79 884.03-3.17L884.03-3.17Q884.13-2.83 884.57-2.64 885.01-2.44 885.5-2.39 885.99-2.34 886.47-2.34L886.47-2.34 886.91-2.29Q887.06-2.25 887.06-1.76L887.06-1.76Q887.06-1.61 886.94-1.29 886.82-0.98 886.67-0.98L886.67-0.98Q885.94-0.93 885.03-0.78 884.13-0.63 883.35-0.44 882.57-0.24 881.88-0.05 881.2 0.15 880.81 0.29L880.81 0.29 880.37 0.39Q879.98 0.39 879.98-0.39L879.98-0.39 879.98-2.88 879.88-3.13Q876.66 0.34 873.49 0.34L873.49 0.34Q871.68 0.34 870.39-0.56 869.09-1.46 868.48-2.95 867.87-4.44 867.63-5.83 867.38-7.23 867.38-8.74L867.38-8.74 867.38-14.89Q867.38-16.8 866.7-17.53L866.7-17.53Q866.21-18.12 865.5-18.33 864.8-18.55 864.33-18.55 863.87-18.55 863.87-18.65L863.87-18.65Q863.87-19.82 864.16-19.87L864.16-19.87Q869.34-20.65 870.9-21.14L870.9-21.14Q870.95-21.14 871.05-21.17 871.14-21.19 871.14-21.19L871.14-21.19Q871.34-21.19 871.39-20.78 871.44-20.36 871.39-20.17L871.39-20.17Q871.09-17.82 871.09-16.55L871.09-16.55 871.09-9.96Q871.09-6.2 872.22-4.42 873.34-2.64 875.88-2.64L875.88-2.64Q877.34-2.64 878.66-3.78 879.98-4.93 879.98-5.76L879.98-5.76 879.98-14.89Q879.98-16.8 879.3-17.53L879.3-17.53Q878.81-18.12 878.1-18.33 877.39-18.55 876.93-18.55 876.46-18.55 876.46-18.65L876.46-18.65Q876.46-19.82 876.76-19.87L876.76-19.87Q881.93-20.65 883.5-21.14L883.5-21.14Q883.55-21.14 883.64-21.17 883.74-21.19 883.74-21.19L883.74-21.19Q883.94-21.19 883.98-20.78 884.03-20.36 883.98-20.17L883.98-20.17Q883.69-17.82 883.69-16.65ZM902-21.34L902-21.34Q904.88-21.34 905.81-19.92L905.81-19.92Q905.81-18.21 905.27-17.43 904.73-16.65 903.95-16.65L903.95-16.65Q903.07-16.65 902.34-17.48 901.61-18.31 900.34-18.31L900.34-18.31Q898.83-18.31 897.7-16.89 896.58-15.48 896.58-13.92L896.58-13.92 896.58-6.59Q896.58-3.76 896.97-2.25L896.97-2.25Q897.07-1.9 898.26-1.59 899.46-1.27 899.95-1.27L899.95-1.27Q900.1-1.27 900.14-0.68 900.19-0.1 900.1 0.15L900.1 0.15Q895.21-0.1 894.82-0.1L894.82-0.1Q894.53-0.1 889.5 0.15L889.5 0.15Q889.3-0.05 889.3-0.66 889.3-1.27 889.5-1.27L889.5-1.27Q890.09-1.27 891.23-1.59 892.38-1.9 892.48-2.25L892.48-2.25Q892.82-3.66 892.82-5.66L892.82-5.66 892.82-14.89Q892.82-16.8 892.14-17.53L892.14-17.53Q891.65-18.12 890.94-18.33 890.23-18.55 889.77-18.55 889.3-18.55 889.3-18.65L889.3-18.65Q889.3-19.82 889.6-19.87L889.6-19.87Q894.77-20.65 896.34-21.14L896.34-21.14Q896.38-21.14 896.48-21.17 896.58-21.19 896.58-21.19L896.58-21.19Q896.77-21.19 896.82-20.78 896.87-20.36 896.82-20.17L896.82-20.17 896.53-17.72Q897.41-19.04 898.95-20.19 900.49-21.34 902-21.34ZM921.97-21.39L921.97-21.39Q925.39-21.39 926.75-18.95 928.12-16.5 928.12-11.04L928.12-11.04 928.12-6.59Q928.12-3.76 928.51-2.25L928.51-2.25Q928.61-1.9 929.78-1.59 930.95-1.27 931.44-1.27L931.44-1.27Q931.59-1.27 931.64-0.68 931.68-0.1 931.59 0.15L931.59 0.15Q926.7-0.1 926.36-0.1L926.36-0.1Q926.26-0.1 921.24 0.15L921.24 0.15Q921.04-0.05 921.04-0.66 921.04-1.27 921.24-1.27L921.24-1.27Q921.82-1.27 922.87-1.59 923.92-1.9 924.02-2.25L924.02-2.25Q924.36-3.66 924.36-5.66L924.36-5.66 924.36-10.55Q924.36-15.09 923.19-16.75 922.02-18.41 919.38-18.41L919.38-18.41Q917.82-18.41 916.38-17.26 914.94-16.11 914.94-15.19L914.94-15.19 914.94-6.59Q914.94-3.76 915.33-2.25L915.33-2.25Q915.42-1.9 916.6-1.59 917.77-1.27 918.26-1.27L918.26-1.27Q918.4-1.27 918.45-0.68 918.5-0.1 918.4 0.15L918.4 0.15Q913.52-0.1 913.18-0.1L913.18-0.1Q912.89-0.1 907.86 0.15L907.86 0.15Q907.66-0.05 907.66-0.66 907.66-1.27 907.86-1.27L907.86-1.27Q908.44-1.27 909.59-1.59 910.74-1.9 910.83-2.25L910.83-2.25Q911.18-3.66 911.18-5.66L911.18-5.66 911.18-14.89Q911.18-16.8 910.49-17.53L910.49-17.53Q910-18.12 909.3-18.33 908.59-18.55 908.13-18.55 907.66-18.55 907.66-18.65L907.66-18.65Q907.66-19.82 907.95-19.87L907.95-19.87Q913.13-20.65 914.69-21.14L914.69-21.14Q914.74-21.14 914.84-21.17 914.94-21.19 914.94-21.19L914.94-21.19Q915.13-21.19 915.18-20.78 915.23-20.36 915.18-20.17L915.18-20.17Q914.99-18.8 914.99-18.21L914.99-18.21Q914.99-18.02 915.08-18.02L915.08-18.02Q915.13-18.02 915.23-18.12L915.23-18.12Q916.35-19.29 918.28-20.34 920.21-21.39 921.97-21.39ZM937.61-27.22Q936.91-27.93 936.91-28.96 936.91-29.98 937.61-30.69 938.32-31.4 939.35-31.4 940.37-31.4 941.08-30.69 941.79-29.98 941.79-28.96 941.79-27.93 941.08-27.22 940.37-26.51 939.35-26.51 938.32-26.51 937.61-27.22ZM941.59-16.65L941.59-6.59Q941.59-3.76 941.98-2.25L941.98-2.25Q942.08-1.9 943.25-1.59 944.43-1.27 944.91-1.27L944.91-1.27Q945.06-1.27 945.11-0.68 945.16-0.1 945.06 0.15L945.06 0.15Q940.18-0.1 939.84-0.1 939.49-0.1 934.51 0.15L934.51 0.15Q934.32-0.05 934.32-0.66 934.32-1.27 934.51-1.27L934.51-1.27Q935.1-1.27 936.25-1.59 937.39-1.9 937.49-2.25L937.49-2.25Q937.83-3.66 937.83-5.66L937.83-5.66 937.83-14.89Q937.83-16.8 937.15-17.53L937.15-17.53Q936.66-18.12 935.95-18.33 935.25-18.55 934.78-18.55 934.32-18.55 934.32-18.65L934.32-18.65Q934.32-19.82 934.61-19.87L934.61-19.87Q939.79-20.65 941.35-21.14L941.35-21.14 941.45-21.19Q941.55-21.19 941.59-21.19L941.59-21.19Q941.79-21.19 941.84-20.78 941.89-20.36 941.84-20.17L941.84-20.17Q941.59-18.21 941.59-16.65L941.59-16.65ZM949.79-5.86L949.79-18.26 946.96-18.26Q946.72-18.26 946.72-19.29L946.72-19.29Q946.72-19.58 946.77-19.63L946.77-19.63Q948.18-20.26 949.84-22.22L949.84-22.22Q950.38-22.85 950.89-23.66 951.41-24.46 951.75-25.05 952.09-25.63 952.09-25.68L952.09-25.68Q953.55-25.68 953.55-25.44L953.55-25.44 953.55-20.61Q954.82-20.61 957.41-20.58 960-20.56 960.15-20.56L960.15-20.56Q960.54-20.56 960.54-20.12L960.54-20.12Q960.54-19.24 960.05-18.26L960.05-18.26 953.55-18.26 953.55-6.3Q953.55-4.35 954.56-3.17 955.56-2 957.17-2L957.17-2Q958.63-2 960.2-2.93L960.2-2.93Q960.34-3.03 960.63-2.51 960.93-2 960.88-1.95L960.88-1.95Q960.15-1.17 958.63-0.42 957.12 0.34 955.51 0.34L955.51 0.34Q953.07 0.34 951.43-1.27 949.79-2.88 949.79-5.86L949.79-5.86ZM982.46-16.65L982.46-16.65 982.46-6.88Q982.46-4.79 982.8-3.17L982.8-3.17Q982.9-2.83 983.34-2.64 983.78-2.44 984.26-2.39 984.75-2.34 985.24-2.34L985.24-2.34 985.68-2.29Q985.83-2.25 985.83-1.76L985.83-1.76Q985.83-1.61 985.71-1.29 985.58-0.98 985.44-0.98L985.44-0.98Q984.7-0.93 983.8-0.78 982.9-0.63 982.12-0.44 981.34-0.24 980.65-0.05 979.97 0.15 979.58 0.29L979.58 0.29 979.14 0.39Q978.75 0.39 978.75-0.39L978.75-0.39 978.75-2.88 978.65-3.13Q975.43 0.34 972.25 0.34L972.25 0.34Q970.45 0.34 969.15-0.56 967.86-1.46 967.25-2.95 966.64-4.44 966.39-5.83 966.15-7.23 966.15-8.74L966.15-8.74 966.15-14.89Q966.15-16.8 965.47-17.53L965.47-17.53Q964.98-18.12 964.27-18.33 963.56-18.55 963.1-18.55 962.63-18.55 962.63-18.65L962.63-18.65Q962.63-19.82 962.93-19.87L962.93-19.87Q968.1-20.65 969.67-21.14L969.67-21.14Q969.71-21.14 969.81-21.17 969.91-21.19 969.91-21.19L969.91-21.19Q970.1-21.19 970.15-20.78 970.2-20.36 970.15-20.17L970.15-20.17Q969.86-17.82 969.86-16.55L969.86-16.55 969.86-9.96Q969.86-6.2 970.98-4.42 972.11-2.64 974.65-2.64L974.65-2.64Q976.11-2.64 977.43-3.78 978.75-4.93 978.75-5.76L978.75-5.76 978.75-14.89Q978.75-16.8 978.06-17.53L978.06-17.53Q977.58-18.12 976.87-18.33 976.16-18.55 975.7-18.55 975.23-18.55 975.23-18.65L975.23-18.65Q975.23-19.82 975.52-19.87L975.52-19.87Q980.7-20.65 982.26-21.14L982.26-21.14Q982.31-21.14 982.41-21.17 982.51-21.19 982.51-21.19L982.51-21.19Q982.7-21.19 982.75-20.78 982.8-20.36 982.75-20.17L982.75-20.17Q982.46-17.82 982.46-16.65ZM1000.77-21.34L1000.77-21.34Q1003.65-21.34 1004.57-19.92L1004.57-19.92Q1004.57-18.21 1004.04-17.43 1003.5-16.65 1002.72-16.65L1002.72-16.65Q1001.84-16.65 1001.11-17.48 1000.38-18.31 999.11-18.31L999.11-18.31Q997.59-18.31 996.47-16.89 995.35-15.48 995.35-13.92L995.35-13.92 995.35-6.59Q995.35-3.76 995.74-2.25L995.74-2.25Q995.83-1.9 997.03-1.59 998.23-1.27 998.72-1.27L998.72-1.27Q998.86-1.27 998.91-0.68 998.96-0.1 998.86 0.15L998.86 0.15Q993.98-0.1 993.59-0.1L993.59-0.1Q993.3-0.1 988.27 0.15L988.27 0.15Q988.07-0.05 988.07-0.66 988.07-1.27 988.27-1.27L988.27-1.27Q988.85-1.27 990-1.59 991.15-1.9 991.24-2.25L991.24-2.25Q991.59-3.66 991.59-5.66L991.59-5.66 991.59-14.89Q991.59-16.8 990.9-17.53L990.9-17.53Q990.41-18.12 989.71-18.33 989-18.55 988.53-18.55 988.07-18.55 988.07-18.65L988.07-18.65Q988.07-19.82 988.36-19.87L988.36-19.87Q993.54-20.65 995.1-21.14L995.1-21.14Q995.15-21.14 995.25-21.17 995.35-21.19 995.35-21.19L995.35-21.19Q995.54-21.19 995.59-20.78 995.64-20.36 995.59-20.17L995.59-20.17 995.3-17.72Q996.18-19.04 997.71-20.19 999.25-21.34 1000.77-21.34ZM1016-19.48L1016-19.48Q1013.46-19.48 1012.12-17.31 1010.77-15.14 1010.77-13.72L1010.77-13.72Q1010.77-13.38 1011.07-13.38L1011.07-13.38 1020.59-13.38Q1020.83-13.38 1020.83-13.87L1020.83-13.87Q1020.83-15.43 1019.51-17.46 1018.2-19.48 1016-19.48ZM1016.49-21.29L1016.49-21.29Q1018.73-21.29 1020.44-20.43 1022.15-19.58 1023.05-18.24 1023.96-16.89 1024.37-15.5 1024.79-14.11 1024.79-12.74L1024.79-12.74Q1024.79-11.77 1024.49-11.55 1024.2-11.33 1023.37-11.33L1023.37-11.33 1011.07-11.33Q1010.68-11.33 1010.68-11.08L1010.68-11.08Q1010.68-8.01 1012.53-5.42 1014.39-2.83 1017.9-2.83L1017.9-2.83Q1018.93-2.83 1019.86-3.03 1020.78-3.22 1021.44-3.49 1022.1-3.76 1022.57-4.03 1023.03-4.3 1023.37-4.54L1023.37-4.54 1023.71-4.79Q1024.01-4.79 1024.01-4.15L1024.01-4.15Q1024.01-3.76 1023.71-3.27L1023.71-3.27Q1022.74-1.9 1020.83-0.81 1018.93 0.29 1016.68 0.29L1016.68 0.29Q1012.63 0.29 1009.72-2.76 1006.82-5.81 1006.82-10.21L1006.82-10.21Q1006.82-15.33 1009.58-18.31 1012.34-21.29 1016.49-21.29ZM1035.33-21.34L1035.33-21.34Q1036.41-21.34 1038.04-21.07 1039.68-20.8 1040.31-20.7L1040.31-20.7Q1040.8-18.46 1040.9-15.72L1040.9-15.72Q1040.9-15.48 1040.26-15.48L1040.26-15.48Q1039.58-15.48 1039.53-15.82L1039.53-15.82Q1039.29-17.19 1038.14-18.41 1036.99-19.63 1035.53-19.63L1035.53-19.63Q1032.01-19.63 1032.01-16.75L1032.01-16.75Q1032.01-16.02 1032.21-15.45 1032.4-14.89 1032.96-14.38 1033.53-13.87 1033.82-13.65 1034.11-13.43 1035.11-12.87 1036.11-12.3 1036.36-12.16L1036.36-12.16Q1036.55-12.06 1037.5-11.5 1038.46-10.94 1038.85-10.69 1039.24-10.45 1039.99-9.86 1040.75-9.28 1041.09-8.81 1041.44-8.35 1041.75-7.64 1042.07-6.93 1042.07-6.2L1042.07-6.2Q1042.07-3.32 1039.82-1.39 1037.58 0.54 1034.55 0.54L1034.55 0.54Q1033.53 0.54 1032.67 0.42 1031.82 0.29 1030.64 0 1029.47-0.29 1028.84-0.39L1028.84-0.39Q1028.54-1.17 1028.28-2.83 1028.01-4.49 1028.01-5.47L1028.01-5.47Q1028.4-5.76 1028.59-5.76L1028.59-5.76Q1029.33-5.76 1029.37-5.47L1029.37-5.47Q1029.67-4 1031.21-2.61 1032.74-1.22 1034.55-1.22L1034.55-1.22Q1036.11-1.22 1037.11-2.08 1038.11-2.93 1038.11-4.54L1038.11-4.54Q1038.11-5.37 1037.8-6.08 1037.48-6.79 1036.77-7.35 1036.06-7.91 1035.45-8.28 1034.84-8.64 1033.72-9.23 1032.6-9.81 1032.06-10.16L1032.06-10.16Q1028.25-12.35 1028.25-15.38L1028.25-15.38Q1028.25-18.02 1030.38-19.68 1032.5-21.34 1035.33-21.34Z" opacity="1" transform="matrix(1,0,0,1,0,0)" fill="#ffffff" class="slogan-text-1" data-fill-palette-color="secondary" id="text-1"></path></svg></g></svg></g></svg></g></svg></g><g transform="matrix(1,0,0,1,76.53311999999998,0)"><svg viewBox="0 0 244.43135999999996 54.318079999999995" height="54.318079999999995" width="244.43135999999996"><g><svg xmlns="http://www.w3.org/2000/svg" xmlns:xlink="http://www.w3.org/1999/xlink" version="1.1" x="0" y="0" viewBox="5 40 90 20" enable-background="new 0 0 100 100" xml:space="preserve" height="54.318079999999995" width="244.43135999999996" class="icon-icon-0" data-fill-palette-color="accent" id="icon-0"><polygon points="5,60 25,40 75,40 95,60 " fill="#ffffff" data-fill-palette-color="accent"></polygon></svg></g></svg></g><g></g></svg></g><defs></defs></svg><rect width="395.52" height="213.2841191434512" fill="none" stroke="none" visibility="hidden"></rect></g></svg></g></svg>